<svg width="32" height="32" viewBox="0 0 32 32" fill="none" xmlns="http://www.w3.org/2000/svg">
<path d="M26.6663 14.6667C26.6663 11.8377 25.5425 9.12458 23.5421 7.12419C21.5418 5.12381 18.8287 4 15.9997 4C13.1707 4 10.4576 5.12381 8.4572 7.12419C6.45681 9.12458 5.33301 11.8377 5.33301 14.6667" stroke="#373737" stroke-width="2" stroke-linecap="round" stroke-linejoin="round"/>
<path d="M2.6665 20.584V18.0827C2.66659 17.488 2.86544 16.9105 3.23144 16.4418C3.59745 15.9731 4.1096 15.6402 4.6865 15.496L7.0065 14.9147C7.12439 14.8853 7.24742 14.8832 7.36625 14.9085C7.48508 14.9338 7.5966 14.9858 7.69234 15.0606C7.78808 15.1354 7.86552 15.231 7.9188 15.3401C7.97208 15.4493 7.99979 15.5692 7.99984 15.6907V22.9747C8.00005 23.0965 7.97247 23.2166 7.9192 23.3261C7.86593 23.4356 7.78838 23.5315 7.69245 23.6064C7.59653 23.6814 7.48475 23.7335 7.36565 23.7587C7.24655 23.7839 7.12326 23.7817 7.00517 23.752L4.68517 23.172C4.10851 23.0276 3.59666 22.6946 3.23092 22.2259C2.86518 21.7573 2.66652 21.1798 2.6665 20.5854V20.584Z" stroke="#373737" stroke-width="2"/>
<path d="M29.3333 20.584V18.0827C29.3332 17.488 29.1344 16.9105 28.7684 16.4418C28.4024 15.9731 27.8902 15.6402 27.3133 15.496L24.9933 14.9147C24.8754 14.8853 24.7524 14.8832 24.6336 14.9085C24.5148 14.9338 24.4032 14.9858 24.3075 15.0606C24.2118 15.1354 24.1343 15.231 24.081 15.3401C24.0278 15.4493 24 15.5692 24 15.6907V22.9747C23.9998 23.0963 24.0274 23.2163 24.0806 23.3257C24.1338 23.435 24.2112 23.5308 24.307 23.6058C24.4027 23.6807 24.5143 23.7328 24.6333 23.7582C24.7522 23.7835 24.8753 23.7814 24.9933 23.752L27.3133 23.172C27.8902 23.0278 28.4024 22.6949 28.7684 22.2263C29.1344 21.7576 29.3332 21.18 29.3333 20.5854V20.584Z" stroke="#373737" stroke-width="2"/>
<path d="M26.6663 24V24.6667C26.6663 25.3739 26.3854 26.0522 25.8853 26.5523C25.3852 27.0524 24.7069 27.3333 23.9997 27.3333H19.333" stroke="#373737" stroke-width="2"/>
<path d="M18 29.3334H14C13.4696 29.3334 12.9609 29.1227 12.5858 28.7476C12.2107 28.3725 12 27.8638 12 27.3334C12 26.8029 12.2107 26.2942 12.5858 25.9192C12.9609 25.5441 13.4696 25.3334 14 25.3334H18C18.5304 25.3334 19.0391 25.5441 19.4142 25.9192C19.7893 26.2942 20 26.8029 20 27.3334C20 27.8638 19.7893 28.3725 19.4142 28.7476C19.0391 29.1227 18.5304 29.3334 18 29.3334Z" stroke="#373737" stroke-width="2"/>
</svg>
