<svg width="28" height="27" viewBox="0 0 28 27" fill="none" xmlns="http://www.w3.org/2000/svg">
<path d="M24.6665 23.6666V9.17595L13.9998 2.77595L3.33317 9.17595V23.6666H8.6665V19.9999C8.6665 18.5855 9.22841 17.2289 10.2286 16.2287C11.2288 15.2285 12.5854 14.6666 13.9998 14.6666C15.4143 14.6666 16.7709 15.2285 17.7711 16.2287C18.7713 17.2289 19.3332 18.5855 19.3332 19.9999V23.6666H24.6665ZM16.6665 26.3333V19.9999C16.6665 19.2927 16.3856 18.6144 15.8855 18.1143C15.3854 17.6142 14.7071 17.3333 13.9998 17.3333C13.2926 17.3333 12.6143 17.6142 12.1142 18.1143C11.6141 18.6144 11.3332 19.2927 11.3332 19.9999V26.3333H3.33317C2.62593 26.3333 1.94765 26.0523 1.44755 25.5522C0.947455 25.0521 0.666504 24.3739 0.666504 23.6666V9.17595C0.666499 8.71545 0.785745 8.2628 1.01263 7.86207C1.23951 7.46135 1.5663 7.1262 1.96117 6.88928L12.6278 0.489279C13.0423 0.24061 13.5165 0.109253 13.9998 0.109253C14.4832 0.109253 14.9574 0.24061 15.3718 0.489279L26.0385 6.88928C26.4334 7.1262 26.7602 7.46135 26.987 7.86207C27.2139 8.2628 27.3332 8.71545 27.3332 9.17595V23.6666C27.3332 24.3739 27.0522 25.0521 26.5521 25.5522C26.052 26.0523 25.3737 26.3333 24.6665 26.3333H16.6665Z" fill="#373737"/>
</svg>
