<svg width="24" height="27" viewBox="0 0 24 27" fill="none" xmlns="http://www.w3.org/2000/svg">
<path d="M12 1.95734C13.3074 1.95734 14.5734 2.50614 15.516 3.50305C16.4604 4.50187 17 5.86794 17 7.30331C17 8.73867 16.4604 10.1047 15.516 11.1036C14.5734 12.1005 13.3074 12.6493 12 12.6493C10.6926 12.6493 9.42656 12.1005 8.484 11.1036C7.53963 10.1047 7 8.73867 7 7.30331C7 5.86794 7.53963 4.50187 8.484 3.50305C9.42656 2.50614 10.6926 1.95734 12 1.95734ZM12 17.8223C15.1855 17.8223 18.0185 18.5066 20.0188 19.5644C22.0638 20.6459 23 21.9684 23 23.1682V25.3412H1V23.1682C1 21.9684 1.93619 20.6459 3.98124 19.5644C5.98152 18.5066 8.81451 17.8223 12 17.8223Z" stroke="#373737" stroke-width="2"/>
</svg>
