<?xml version="1.0" standalone="no"?>
<!DOCTYPE svg PUBLIC "-//W3C//DTD SVG 20010904//EN"
 "http://www.w3.org/TR/2001/REC-SVG-20010904/DTD/svg10.dtd">
<svg version="1.0" xmlns="http://www.w3.org/2000/svg"
 width="79.000000pt" height="72.000000pt" viewBox="0 0 79.000000 72.000000"
 preserveAspectRatio="xMidYMid meet">

<g transform="translate(0.000000,72.000000) scale(0.100000,-0.100000)"
fill="#000000" stroke="none">
<path d="M167 694 c-4 -4 -7 -31 -7 -61 0 -47 2 -53 20 -53 19 0 21 5 18 57
-3 52 -14 73 -31 57z"/>
<path d="M520 640 c0 -53 2 -61 18 -58 14 3 17 14 17 58 0 44 -3 55 -17 58
-16 3 -18 -5 -18 -58z"/>
<path d="M41 624 c-20 -25 -21 -39 -21 -255 0 -148 4 -237 11 -253 20 -44 46
-47 348 -44 l283 3 19 24 c18 21 19 42 19 261 0 225 -1 239 -21 264 -17 21
-29 26 -65 26 -24 0 -44 -4 -44 -10 0 -5 18 -10 39 -10 51 0 71 -26 71 -92 l0
-48 -315 0 -315 0 0 58 c0 68 11 82 62 82 21 0 38 5 38 10 0 6 -20 10 -44 10
-36 0 -48 -5 -65 -26z m639 -320 c0 -95 -4 -174 -10 -185 -10 -18 -24 -19
-303 -19 -215 0 -296 3 -305 12 -8 8 -12 64 -12 185 l0 173 315 0 315 0 0
-166z"/>
<path d="M464 422 c-5 -4 -41 -45 -78 -92 -37 -47 -71 -86 -75 -88 -4 -1 -22
18 -41 43 -35 46 -54 56 -63 31 -7 -19 81 -136 101 -135 20 0 187 203 187 226
0 19 -15 26 -31 15z"/>
<path d="M220 640 c0 -6 53 -10 140 -10 87 0 140 4 140 10 0 6 -53 10 -140 10
-87 0 -140 -4 -140 -10z"/>
<path d="M710 356 c0 -234 0 -235 -24 -263 l-24 -28 -289 -5 -288 -6 296 -2
c285 -2 296 -1 317 18 21 20 22 26 22 270 0 138 -2 250 -5 250 -3 0 -5 -105
-5 -234z"/>
<path d="M730 334 c0 -223 -1 -244 -19 -265 -19 -24 -19 -24 -313 -29 l-293
-6 302 -2 302 -2 20 26 c20 25 21 39 21 258 0 132 -4 237 -10 246 -6 10 -10
-67 -10 -226z"/>
</g>
</svg>
