<svg width="45" height="31" viewBox="0 0 45 31" fill="none" xmlns="http://www.w3.org/2000/svg">
<path d="M35.625 14.5683H13.3875L20.1938 9.07008C20.512 8.81255 20.6651 8.48054 20.6194 8.14708C20.5737 7.81363 20.3329 7.50604 19.95 7.29199C19.5671 7.07794 19.0734 6.97496 18.5776 7.0057C18.0818 7.03645 17.6245 7.1984 17.3062 7.45593L7.93125 15.0223C7.86818 15.0825 7.81177 15.1457 7.7625 15.2114C7.7625 15.2745 7.7625 15.3123 7.63125 15.3754C7.54626 15.52 7.50176 15.6739 7.5 15.8294C7.50176 15.9848 7.54626 16.1387 7.63125 16.2833C7.63125 16.3464 7.63125 16.3842 7.7625 16.4473C7.81177 16.513 7.86818 16.5763 7.93125 16.6364L17.3062 24.2028C17.4825 24.3451 17.7033 24.4596 17.9528 24.5381C18.2024 24.6165 18.4745 24.6571 18.75 24.6568C19.1881 24.6573 19.6127 24.5547 19.95 24.3667C20.1399 24.2609 20.2968 24.1308 20.4118 23.9841C20.5269 23.8374 20.5977 23.6769 20.6204 23.5117C20.643 23.3465 20.617 23.18 20.5438 23.0216C20.4706 22.8632 20.3516 22.7161 20.1938 22.5886L13.3875 17.0904H35.625C36.1223 17.0904 36.5992 16.9576 36.9508 16.7211C37.3025 16.4846 37.5 16.1638 37.5 15.8294C37.5 15.4949 37.3025 15.1741 36.9508 14.9377C36.5992 14.7012 36.1223 14.5683 35.625 14.5683Z" fill="#373737"/>
</svg>
