<svg width="64" height="65" viewBox="0 0 64 65" fill="none" xmlns="http://www.w3.org/2000/svg">
<g filter="url(#filter0_d_490_2699)">
<rect x="10" y="8.5" width="44" height="44" rx="12" fill="white" shape-rendering="crispEdges"/>
<path fill-rule="evenodd" clip-rule="evenodd" d="M28.8927 24.7902C28.9593 24.3248 29.1016 24.0681 29.3031 23.8954C29.6384 23.608 30.3628 23.35 31.9999 23.35C33.637 23.35 34.3614 23.608 34.6967 23.8954C34.8985 24.0684 35.0409 24.3256 35.1074 24.7924C34.2012 24.6895 33.1685 24.65 31.9999 24.65C30.8299 24.65 29.7977 24.6896 28.8927 24.7902ZM27.1588 25.1032C27.2027 24.1777 27.4266 23.2648 28.1967 22.6047C29.0281 21.8921 30.3036 21.65 31.9999 21.65C33.6962 21.65 34.9717 21.8921 35.8031 22.6047C36.5762 23.2673 36.7988 24.1848 36.8415 25.114C37.7271 25.3609 38.4775 25.7342 39.0803 26.2977C40.2613 27.4016 40.6877 29.0595 40.8091 31.239C40.8356 31.3212 40.8499 31.4089 40.8499 31.5C40.8499 31.6577 40.8468 31.8169 40.8386 31.9766C40.8465 32.2793 40.8499 32.5911 40.8499 32.9118C40.8499 35.3466 40.532 37.3446 39.0662 38.6541C37.6392 39.929 35.3373 40.35 31.9999 40.35C30.3151 40.35 28.9159 40.268 27.7711 40.0397C26.6221 39.8105 25.6701 39.4227 24.9346 38.7676C23.4552 37.45 23.1499 35.3223 23.1499 32.5C23.1499 32.2798 23.1518 32.0639 23.1559 31.8522C23.1516 31.7343 23.1499 31.6167 23.1499 31.5C23.1499 31.4331 23.1576 31.368 23.1723 31.3055C23.2644 29.0722 23.6717 27.3572 24.9346 26.2325C25.5352 25.6975 26.2801 25.3408 27.1588 25.1032ZM24.8569 31.841C24.9108 29.4193 25.2796 28.2017 26.0652 27.502C26.4963 27.118 27.1277 26.8222 28.1037 26.6276C29.0839 26.432 30.3514 26.35 31.9999 26.35C33.6492 26.35 34.9141 26.4322 35.8913 26.633C36.8622 26.8325 37.4891 27.1374 37.9195 27.5396C38.6916 28.2614 39.0645 29.5152 39.1367 31.959C39.1136 32.3253 39.0585 32.6213 38.9612 32.8695C38.8369 33.1868 38.6281 33.4659 38.2261 33.7153C37.3433 34.263 35.5691 34.65 32.0059 34.65C28.4431 34.65 26.6651 34.2631 25.7789 33.7147C25.3749 33.4648 25.1649 33.1851 25.0399 32.868C24.9319 32.594 24.8754 32.2617 24.8569 31.841ZM38.9825 35.243C38.8013 36.2423 38.4646 36.912 37.9336 37.3864C37.0273 38.196 35.3292 38.65 31.9999 38.65C30.3514 38.65 29.0839 38.568 28.1037 38.3725C27.1277 38.1778 26.4963 37.8821 26.0652 37.4981C25.5476 37.0371 25.211 36.3513 25.0261 35.2444C26.3756 36.0116 28.5683 36.35 32.0059 36.35C35.4446 36.35 37.6356 36.0114 38.9825 35.243ZM29.1499 32.5C29.1499 32.0306 29.5305 31.65 29.9999 31.65H33.9999C34.4693 31.65 34.8499 32.0306 34.8499 32.5C34.8499 32.9695 34.4693 33.35 33.9999 33.35L29.9999 33.35C29.5305 33.35 29.1499 32.9695 29.1499 32.5Z" fill="#347AE2"/>
</g>
<defs>
<filter id="filter0_d_490_2699" x="0" y="0.5" width="64" height="64" filterUnits="userSpaceOnUse" color-interpolation-filters="sRGB">
<feFlood flood-opacity="0" result="BackgroundImageFix"/>
<feColorMatrix in="SourceAlpha" type="matrix" values="0 0 0 0 0 0 0 0 0 0 0 0 0 0 0 0 0 0 127 0" result="hardAlpha"/>
<feOffset dy="2"/>
<feGaussianBlur stdDeviation="5"/>
<feComposite in2="hardAlpha" operator="out"/>
<feColorMatrix type="matrix" values="0 0 0 0 0.486275 0 0 0 0 0.552941 0 0 0 0 0.709804 0 0 0 0.12 0"/>
<feBlend mode="normal" in2="BackgroundImageFix" result="effect1_dropShadow_490_2699"/>
<feBlend mode="normal" in="SourceGraphic" in2="effect1_dropShadow_490_2699" result="shape"/>
</filter>
</defs>
</svg>
