<svg width="64" height="65" viewBox="0 0 64 65" fill="none" xmlns="http://www.w3.org/2000/svg">
<g filter="url(#filter0_d_490_2816)">
<rect x="10" y="8.5" width="44" height="44" rx="12" fill="white" shape-rendering="crispEdges"/>
<path fill-rule="evenodd" clip-rule="evenodd" d="M23.8499 30.5C23.8499 25.9989 27.4988 22.35 31.9999 22.35C32.8908 22.35 33.7467 22.4927 34.547 22.7557C34.993 22.9023 35.4733 22.6596 35.6199 22.2136C35.7665 21.7676 35.5238 21.2873 35.0778 21.1407C34.1084 20.8221 33.0734 20.65 31.9999 20.65C26.5599 20.65 22.1499 25.06 22.1499 30.5C22.1499 35.94 26.5599 40.35 31.9999 40.35C37.4399 40.35 41.8499 35.94 41.8499 30.5C41.8499 30.0306 41.4693 29.65 40.9999 29.65C40.5305 29.65 40.1499 30.0306 40.1499 30.5C40.1499 35.0011 36.501 38.65 31.9999 38.65C27.4988 38.65 23.8499 35.0011 23.8499 30.5ZM39.6022 26.0998C39.9335 25.7671 39.9323 25.2289 39.5996 24.8977C39.267 24.5665 38.7288 24.5676 38.3976 24.9003L32.0495 31.276L29.6208 28.6781C29.3002 28.3351 28.7624 28.317 28.4194 28.6376C28.0765 28.9582 28.0584 29.4961 28.379 29.839L31.4093 33.0805C31.5668 33.249 31.7861 33.3463 32.0168 33.3499C32.2475 33.3536 32.4698 33.2633 32.6325 33.0998L39.6022 26.0998Z" fill="#347AE2"/>
</g>
<defs>
<filter id="filter0_d_490_2816" x="0" y="0.5" width="64" height="64" filterUnits="userSpaceOnUse" color-interpolation-filters="sRGB">
<feFlood flood-opacity="0" result="BackgroundImageFix"/>
<feColorMatrix in="SourceAlpha" type="matrix" values="0 0 0 0 0 0 0 0 0 0 0 0 0 0 0 0 0 0 127 0" result="hardAlpha"/>
<feOffset dy="2"/>
<feGaussianBlur stdDeviation="5"/>
<feComposite in2="hardAlpha" operator="out"/>
<feColorMatrix type="matrix" values="0 0 0 0 0.486275 0 0 0 0 0.552941 0 0 0 0 0.709804 0 0 0 0.12 0"/>
<feBlend mode="normal" in2="BackgroundImageFix" result="effect1_dropShadow_490_2816"/>
<feBlend mode="normal" in="SourceGraphic" in2="effect1_dropShadow_490_2816" result="shape"/>
</filter>
</defs>
</svg>
