<svg width="21" height="24" viewBox="0 0 21 24" fill="none" xmlns="http://www.w3.org/2000/svg">
<path d="M19.5416 21.3333H1.45823C1.11566 21.3333 0.787117 21.4562 0.544882 21.675C0.302648 21.8938 0.166562 22.1906 0.166562 22.5C0.166562 22.8094 0.302648 23.1061 0.544882 23.3249C0.787117 23.5437 1.11566 23.6666 1.45823 23.6666H19.5416C19.8841 23.6666 20.2127 23.5437 20.4549 23.3249C20.6971 23.1061 20.8332 22.8094 20.8332 22.5C20.8332 22.1906 20.6971 21.8938 20.4549 21.675C20.2127 21.4562 19.8841 21.3333 19.5416 21.3333ZM1.45823 19H1.57448L6.96073 18.5566C7.55076 18.5036 8.10261 18.2688 8.52364 17.8916L20.1486 7.39164C20.5998 6.96111 20.8437 6.38657 20.8267 5.79394C20.8098 5.2013 20.5334 4.6389 20.0582 4.22998L16.5191 1.03331C16.0571 0.641422 15.4519 0.416562 14.8184 0.401504C14.1849 0.386446 13.5673 0.582241 13.0832 0.951643L1.45823 11.4516C1.04072 11.8319 0.780755 12.3304 0.721978 12.8633L0.166562 17.7283C0.149162 17.8992 0.17371 18.0714 0.238457 18.2328C0.303205 18.3941 0.406556 18.5405 0.541145 18.6616C0.661838 18.7698 0.804976 18.8553 0.962349 18.9134C1.11972 18.9714 1.28824 19.0009 1.45823 19ZM14.7236 2.66664L18.2499 5.85164L15.6666 8.12664L12.2049 4.99998L14.7236 2.66664ZM3.22781 13.0616L10.4999 6.53998L13.9874 9.68998L6.75406 16.2233L2.87906 16.55L3.22781 13.0616Z" fill="#373737"/>
</svg>
