<svg width="64" height="65" viewBox="0 0 64 65" fill="none" xmlns="http://www.w3.org/2000/svg">
<g filter="url(#filter0_d_490_2920)">
<rect x="10" y="8.5" width="44" height="44" rx="12" fill="white" shape-rendering="crispEdges"/>
<path fill-rule="evenodd" clip-rule="evenodd" d="M35.6009 20.899C35.269 20.567 34.7308 20.567 34.3989 20.899C34.0669 21.2309 34.0669 21.7691 34.3989 22.1011L38.9478 26.65H27.9999C26.4484 26.65 24.9604 27.2664 23.8633 28.3634C22.7662 29.4605 22.1499 30.9485 22.1499 32.5C22.1499 34.0515 22.7662 35.5395 23.8633 36.6366C24.9604 37.7337 26.4484 38.35 27.9999 38.35H34.9999C35.4693 38.35 35.8499 37.9695 35.8499 37.5C35.8499 37.0306 35.4693 36.65 34.9999 36.65H27.9999C26.8993 36.65 25.8437 36.2128 25.0654 35.4345C24.2871 34.6562 23.8499 33.6007 23.8499 32.5C23.8499 31.3994 24.2871 30.3438 25.0654 29.5655C25.8437 28.7873 26.8993 28.35 27.9999 28.35H38.9478L34.3989 32.899C34.0669 33.2309 34.0669 33.7691 34.3989 34.1011C34.7308 34.433 35.269 34.433 35.6009 34.1011L41.6009 28.1011C41.9329 27.7691 41.9329 27.2309 41.6009 26.899L35.6009 20.899Z" fill="#347AE2"/>
</g>
<defs>
<filter id="filter0_d_490_2920" x="0" y="0.5" width="64" height="64" filterUnits="userSpaceOnUse" color-interpolation-filters="sRGB">
<feFlood flood-opacity="0" result="BackgroundImageFix"/>
<feColorMatrix in="SourceAlpha" type="matrix" values="0 0 0 0 0 0 0 0 0 0 0 0 0 0 0 0 0 0 127 0" result="hardAlpha"/>
<feOffset dy="2"/>
<feGaussianBlur stdDeviation="5"/>
<feComposite in2="hardAlpha" operator="out"/>
<feColorMatrix type="matrix" values="0 0 0 0 0.486275 0 0 0 0 0.552941 0 0 0 0 0.709804 0 0 0 0.12 0"/>
<feBlend mode="normal" in2="BackgroundImageFix" result="effect1_dropShadow_490_2920"/>
<feBlend mode="normal" in="SourceGraphic" in2="effect1_dropShadow_490_2920" result="shape"/>
</filter>
</defs>
</svg>
