<svg width="20" height="20" viewBox="0 0 20 20" fill="none" xmlns="http://www.w3.org/2000/svg">
<path fill-rule="evenodd" clip-rule="evenodd" d="M1.7 9.85C1.7 5.34888 5.34888 1.7 9.85 1.7C10.7409 1.7 11.5968 1.84264 12.3971 2.10568C12.8431 2.25226 13.3234 2.00956 13.47 1.56359C13.6166 1.11762 13.3739 0.637258 12.9279 0.490676C11.9585 0.172031 10.9235 0 9.85 0C4.41 0 0 4.41 0 9.85C0 15.29 4.41 19.7 9.85 19.7C15.29 19.7 19.7 15.29 19.7 9.85C19.7 9.38056 19.3194 9 18.85 9C18.3806 9 18 9.38056 18 9.85C18 14.3511 14.3511 18 9.85 18C5.34888 18 1.7 14.3511 1.7 9.85ZM17.4523 5.44974C17.7836 5.11707 17.7824 4.57888 17.4497 4.24766C17.1171 3.91643 16.5789 3.9176 16.2477 4.25026L9.89958 10.6259L7.47093 8.02805C7.15034 7.68512 6.61245 7.66701 6.26953 7.9876C5.9266 8.30818 5.90849 8.84607 6.22907 9.189L9.25938 12.4305C9.41693 12.599 9.63623 12.6963 9.86692 12.6999C10.0976 12.7035 10.3199 12.6132 10.4826 12.4497L17.4523 5.44974Z" fill="#347AE2"/>
</svg>
