<svg width="19" height="19" viewBox="0 0 19 19" fill="none" xmlns="http://www.w3.org/2000/svg">
<path d="M12.3441 2.39622C11.6219 1.61655 10.6133 1.18719 9.50003 1.18719C8.38082 1.18719 7.36884 1.61395 6.65004 2.3888C5.92343 3.17217 5.56941 4.23684 5.65254 5.38649C5.8173 7.65462 7.54326 9.49969 9.50003 9.49969C11.4568 9.49969 13.1798 7.65499 13.3472 5.38723C13.4314 4.24798 13.0752 3.18553 12.3441 2.39622Z" fill="#F7F7F7"/>
<path d="M16.0315 17.8114H2.96896C2.79799 17.8136 2.62866 17.7777 2.47332 17.7063C2.31797 17.6348 2.1805 17.5296 2.07092 17.3984C1.8297 17.11 1.73248 16.7163 1.80447 16.3181C2.11767 14.5807 3.09513 13.1211 4.63146 12.0966C5.99634 11.187 7.72527 10.6864 9.50021 10.6864C11.2752 10.6864 13.0041 11.1874 14.369 12.0966C15.9053 13.1208 16.8827 14.5803 17.1959 16.3177C17.2679 16.7159 17.1707 17.1097 16.9295 17.398C16.82 17.5293 16.6825 17.6346 16.5272 17.7061C16.3718 17.7776 16.2025 17.8136 16.0315 17.8114Z" fill="#F7F7F7"/>
</svg>
